<svg xmlns="http://www.w3.org/2000/svg" viewBox="0 0 512 512">
  <!-- The mascot at home, at night (ADR-013). The house is MARK_PATH from
       src/app/mascotte/mark.ts, scaled ×3; mark.spec.ts checks it stays so.
       The product colours the house (Angular's magenta-violet); the mascot keeps
       the library's brass, and it is the only light in the scene. -->
  <defs>
    <linearGradient id="walls" x1="0" y1="1" x2="1" y2="0">
      <stop offset="0" stop-color="#e90066"/>
      <stop offset="1" stop-color="#d946ef"/>
    </linearGradient>
    <radialGradient id="light" cx="60" cy="52" r="60" gradientUnits="userSpaceOnUse">
      <stop offset="0" stop-color="#d9a24b" stop-opacity=".36"/>
      <stop offset="1" stop-color="#d9a24b" stop-opacity="0"/>
    </radialGradient>
    <radialGradient id="ground">
      <stop offset="0" stop-color="#d946ef" stop-opacity=".5"/>
      <stop offset="1" stop-color="#d946ef" stop-opacity="0"/>
    </radialGradient>
    <clipPath id="inside"><path d="M60 4 L112 34 L112 84 L48 84 L30 100 L30 84 L8 84 L8 34 Z"/></clipPath>
  </defs>
  <rect width="512" height="512" rx="112" fill="#17141c"/>
  <circle cx="84" cy="96" r="4" fill="#e7c588" opacity=".45"/>
  <circle cx="430" cy="84" r="3" fill="#e7c588" opacity=".4"/>
  <circle cx="452" cy="230" r="4" fill="#e7c588" opacity=".3"/>
  <circle cx="58" cy="250" r="3" fill="#e7c588" opacity=".35"/>
  <circle cx="404" cy="440" r="3" fill="#e7c588" opacity=".3"/>
  <ellipse cx="256" cy="390" rx="174" ry="21" fill="url(#ground)"/>
  <g transform="translate(76 70) scale(3)">
    <path d="M60 4 L112 34 L112 84 L48 84 L30 100 L30 84 L8 84 L8 34 Z" fill="#2b2436"/>
    <rect width="120" height="100" fill="url(#light)" clip-path="url(#inside)"/>
    <path d="M60 4 L112 34 L112 84 L48 84 L30 100 L30 84 L8 84 L8 34 Z" fill="none" stroke="url(#walls)" stroke-width="4" stroke-linejoin="round"/>
    <text x="60" y="71" font-family="Georgia, 'Times New Roman', serif" font-size="40" text-anchor="middle" fill="#d9a24b">(<tspan fill="#e7c588">'.'</tspan>)</text>
  </g>
</svg>
